<svg xmlns="http://www.w3.org/2000/svg" width="16" height="12" viewBox="0 0 16 12">
	<def>
		<style>  
			.playing {
				fill: #9cd9d9;
			}
		</style>
	</def>
	<path class="playing" d="M5.849,11.635,3.523,10H2A2,2,0,0,1,0,8V4A2,2,0,0,1,2,2H3.394L5.891.336A2,2,0,0,1,9,2v8a2,2,0,0,1-3.151,1.635ZM2,8H4.156L7,10V2L4,4H2Zm10.051,2.592-.028-.047a1,1,0,0,1,.321-1.309,3.99,3.99,0,0,0,.006-6.467,1,1,0,0,1-.325-1.3l.027-.048a.967.967,0,0,1,1.383-.336,6,6,0,0,1-.005,9.842.911.911,0,0,1-.526.165A.992.992,0,0,1,12.051,10.591ZM10.54,7.949,10.514,7.9a.949.949,0,0,1,.161-1.167,1,1,0,0,0,.006-1.467A.953.953,0,0,1,10.52,4.1l.027-.047a.965.965,0,0,1,1.468-.269,2.985,2.985,0,0,1-.009,4.439.9.9,0,0,1-.6.229A1,1,0,0,1,10.54,7.949Z" />
</svg>