<svg xmlns="http://www.w3.org/2000/svg" width="9" height="8.999" viewBox="0 0 9 8.999">
	<def>
		<style>
			.inActiveSVG {
				fill: #d4e6e4;
			}
		</style>
	</def>
	<path class="inActiveSVG" d="M6.187,9A1.125,1.125,0,0,1,5.063,7.874V6.187A1.125,1.125,0,0,1,6.187,5.062H7.875A1.124,1.124,0,0,1,9,6.187V7.874A1.125,1.125,0,0,1,7.875,9Zm0-1.125H7.875V6.187H6.187ZM1.125,9A1.125,1.125,0,0,1,0,7.874V6.187A1.125,1.125,0,0,1,1.125,5.062H2.813A1.125,1.125,0,0,1,3.938,6.187V7.874A1.125,1.125,0,0,1,2.813,9Zm0-1.125H2.813V6.187H1.125ZM6.187,3.937A1.125,1.125,0,0,1,5.063,2.812V1.125A1.125,1.125,0,0,1,6.187,0H7.875A1.124,1.124,0,0,1,9,1.125V2.812A1.125,1.125,0,0,1,7.875,3.937Zm0-1.125H7.875V1.125H6.187ZM1.125,3.937A1.125,1.125,0,0,1,0,2.812V1.125A1.125,1.125,0,0,1,1.125,0H2.813A1.125,1.125,0,0,1,3.938,1.125V2.812A1.125,1.125,0,0,1,2.813,3.937Zm0-1.125H2.813V1.125H1.125Z" />
</svg>