<svg xmlns="http://www.w3.org/2000/svg"  width="10" height="10.999" viewBox="0 0 10 10.999">
	<def>
		<style>
			.inActiveSVG {
				fill: #d4e6e4;
			}
		</style>
	</def>
	<path class="inActiveSVG" d="M8.041,10.9,5,9.73,1.959,10.9a1.487,1.487,0,0,1-.531.1,1.467,1.467,0,0,1-.8-.236A1.361,1.361,0,0,1,0,9.624V1.375A1.4,1.4,0,0,1,1.428,0H8.571A1.4,1.4,0,0,1,10,1.375v8.25a1.361,1.361,0,0,1-.628,1.138,1.48,1.48,0,0,1-1.331.139Zm.53-1.277V1.375H1.428v8.25L5,8.25ZM3.237,5.252v0a1.012,1.012,0,0,1-.381-.782A1.075,1.075,0,0,1,4.99,4.327c0,.016.018.016.02,0a1.075,1.075,0,0,1,2.133.142,1.008,1.008,0,0,1-.381.782v0L5,6.875Z" />
</svg>