<svg xmlns="http://www.w3.org/2000/svg" width="11.898" height="8.924" viewBox="0 0 11.898 8.924">
	<def>
		<style>
			.inActiveSVG {
				fill: #d4e6e4;
			}
		</style>
	</def>
	<path class="inActiveSVG" d="M10.252,3.3a4.456,4.456,0,0,0-8.607,0,2.966,2.966,0,0,0,1.33,5.621A1.487,1.487,0,0,0,4.462,7.436V4.462A1.483,1.483,0,0,0,3.357,3.03a2.949,2.949,0,0,1,5.185,0A1.483,1.483,0,0,0,7.436,4.462V7.436A1.487,1.487,0,0,0,8.924,8.924,2.966,2.966,0,0,0,10.252,3.3ZM2.975,7.436a1.487,1.487,0,0,1,0-2.975Zm5.949,0V4.462a1.487,1.487,0,0,1,0,2.975Z" />
</svg>