<svg xmlns="http://www.w3.org/2000/svg" class="m-auto " width="83.402" height="57.03" viewBox="0 0 59 59.03">


	<def>
		<style>
			
			/* Svg LOGO */
			.alogo,
			.blogo,
			.clogo,
			.elogo {
			fill: none;
				stroke-width: 1px;
			}

			.alogo {
				stroke: #5d45f9;
			}

			.alogo,
			.blogo {
				stroke-width: 1px;
			}

			.blogo {
				stroke: #5b45f2;
			}

			.dlogo,
			.flogo {
				stroke: none;
			}

			.flogo {
				fill: #5b45f2;
			}

			.elogo {
			}

			/* END Svg LOGO */
				
		</style>
	</def>


	<g transform="translate(-509.771 -70.652)">
		<path class="alogo" d="M3609.866,1119.453s2.418,5.277,4.37,6.145,5.189-2.038,5.948-3.773,1.976-22.757,3.792-18.094,2.172,36.637,3.474,36.746,1.9-30.12,3.8-31.991,1.952,24.617,3.8,24.508,1.743-15.141,3.532-16.958,1.978,8.9,3.914,9.561,1.952-6.137,3.832-6.918,1.7,4.7,3.687,3.8,2.3-3.931,4.229-4.338,3.47,2.711,3.47,2.711" transform="translate(-3063.877 -1012.295)" />
		<g transform="matrix(0.995, -0.105, 0.105, 0.995, 507.448, 76.147)">
			<g transform="translate(0 16.572)">
				<g class="blogo" transform="translate(2.21 1.566) rotate(-11)">
					<rect class="dlogo" width="8.206" height="18.235" rx="4.103" />
					<rect class="elogo" x="1.5" y="1.5" width="5.206" height="15.235" rx="2.603" />
				</g>
				<g class="blogo" transform="translate(0 5.652) rotate(-11)">
					<rect class="dlogo" width="3.647" height="11.852" rx="1.823" />
					<rect class="elogo" x="1.5" y="1.5" width="0.647" height="8.852" rx="0.323" />
				</g>
			</g>
			<g transform="matrix(-0.946, -0.326, 0.326, -0.946, 40.513, 37.892)">
				<g class="clogo" transform="translate(2.461 1.567) rotate(-11)">
					<path class="dlogo" d="M4.113,0a4.1,4.1,0,0,1,4.1,4.114L8.207,14.178A4.1,4.1,0,1,1,0,14.184L.007,4.12A4.117,4.117,0,0,1,4.113,0Z" />
					<path class="flogo" d="M 4.114869594573975 2.999997138977051 C 3.504269599914551 3.000406265258789 3.007169246673584 3.503636360168457 3.006759643554688 4.121787071228027 L 2.999999523162842 14.185546875 C 2.999729633331299 14.58953666687012 3.203149318695068 14.85412693023682 3.324429512023926 14.97589683532715 C 3.444169521331787 15.09610652923584 3.703859329223633 15.29777717590332 4.09852933883667 15.29777717590332 C 4.709129333496094 15.29736709594727 5.206229209899902 14.79414653778076 5.206639289855957 14.17599678039551 L 5.213399410247803 4.112226486206055 C 5.213669776916504 3.708236694335938 5.010249137878418 3.443646430969238 4.888969421386719 3.321876525878906 C 4.769229412078857 3.201666831970215 4.509539604187012 2.999997138977051 4.115639686584473 2.999997138977051 L 4.114869594573975 2.999997138977051 M 4.115642547607422 -3.814697265625e-06 C 6.380697250366211 -3.814697265625e-06 8.214919090270996 1.84130859375 8.213399887084961 4.114236831665039 L 8.206639289855957 14.17801666259766 C 8.205119132995605 16.45176696777344 6.366759300231934 18.2962474822998 4.100559234619141 18.29777717590332 C 4.099729537963867 18.29777717590332 4.098586082458496 18.29777717590332 4.097756385803223 18.29777717590332 C 1.832701683044434 18.29777717590332 -0.001520156860351563 16.45646476745605 -9.5367431640625e-07 14.18353652954102 L 0.0067596435546875 4.119766235351563 C 0.008279800415039063 1.846006393432617 1.846639633178711 0.00152587890625 4.112839698791504 -3.814697265625e-06 C 4.113669395446777 -3.814697265625e-06 4.114812850952148 -3.814697265625e-06 4.115642547607422 -3.814697265625e-06 Z" />
				</g>
				<g class="alogo" transform="translate(0 4.376) rotate(-11)">
					<rect class="dlogo" width="3.647" height="11.852" rx="1.823" />
					<rect class="elogo" x="1.5" y="1.5" width="0.647" height="8.852" rx="0.323" />
				</g>
			</g>
			<path class="blogo" d="M.168,18.364S-.4,12.03.563,8.295A12.487,12.487,0,0,1,4.906,2.372C9.052-.245,9.546.052,14.778,0s8.642.671,11.9,4.59,2.369,12.784,2.369,12.784" transform="translate(7.579 0)" />
		</g>
	</g>
</svg>