<svg xmlns="http://www.w3.org/2000/svg" width="25.886" height="26.307" viewBox="0 0 25.886 26.307">
	<def>
		<style>
			.aforward1 {
				fill: #9cd9d9;
			}
		</style>
	</def>
	<g transform="translate(-2 -2)">
		<circle cx="1.973" cy="1.973" r="1.973" transform="translate(17.487 9.892)" />
		<circle cx="1.973" cy="1.973" r="1.973" transform="translate(8.453 9.892)" />
		<path class="aforward1" d="M14.93,2A13.044,13.044,0,0,0,2,15.154,13.044,13.044,0,0,0,14.93,28.307,13.057,13.057,0,0,0,27.886,15.154,13.057,13.057,0,0,0,14.93,2Zm.013,23.677A10.437,10.437,0,0,1,4.589,15.154,10.437,10.437,0,0,1,14.943,4.631,10.437,10.437,0,0,1,25.3,15.154,10.437,10.437,0,0,1,14.943,25.677Zm0-5.261a5.159,5.159,0,0,1-4.465-2.631H8.316a7.071,7.071,0,0,0,13.254,0H19.409a5.159,5.159,0,0,1-4.465,2.631Z" />
	</g>
</svg>