<svg xmlns="http://www.w3.org/2000/svg" width="13" height="12" viewBox="0 0 13 12">
	<defs>
		<style>
			.avolume1 {
  				fill: #9cd9d9;
				}
		</style>
	</defs>
	<path class="avolume1" d="M5.848,11.635,3.523,10H2A2,2,0,0,1,0,8V4A2,2,0,0,1,2,2H3.394L5.891.336A2,2,0,0,1,9,2v8a2,2,0,0,1-3.152,1.635ZM2,8H4.155L7,10V2L4,4H2Zm8.54-.05L10.514,7.9a.949.949,0,0,1,.161-1.167,1,1,0,0,0,.005-1.467A.954.954,0,0,1,10.519,4.1l.027-.047a.966.966,0,0,1,1.469-.269,2.985,2.985,0,0,1-.009,4.439.9.9,0,0,1-.6.229A1,1,0,0,1,10.54,7.949Z" />
</svg>